<?xml version="1.0" encoding="utf-8"?>
<!-- Generator: Adobe Illustrator 27.2.0, SVG Export Plug-In . SVG Version: 6.00 Build 0)  -->
<svg version="1.1" id="Layer_1" xmlns="http://www.w3.org/2000/svg" xmlns:xlink="http://www.w3.org/1999/xlink" x="0px" y="0px"
	 viewBox="0 0 2336.65 633.7" style="enable-background:new 0 0 2336.65 633.7;" xml:space="preserve">
<g>
	<path style="fill:#465A50;" d="M375.9,359.89l-27.52-7.65c-2.59-9.73-6.44-18.94-11.37-27.44l14.05-24.87
		c1.9-3.36,1.32-7.58-1.41-10.31l-9.29-9.29l-9.29-9.29c-2.73-2.73-6.95-3.31-10.31-1.41l-24.87,14.05
		c-8.51-4.93-17.72-8.79-27.44-11.37l-7.65-27.52c-1.03-3.72-4.42-6.3-8.29-6.3h-13.14h-13.14c-3.86,0-7.25,2.58-8.29,6.3
		l-7.65,27.52c-9.73,2.59-18.94,6.44-27.44,11.37l-24.87-14.05c-3.36-1.9-7.58-1.32-10.31,1.41l-9.29,9.29l-9.29,9.29
		c-2.73,2.73-3.31,6.95-1.41,10.31l14.05,24.87c-4.93,8.51-8.79,17.72-11.37,27.44l-27.52,7.65c-3.72,1.03-6.3,4.42-6.3,8.29v13.14
		v13.14c0,3.86,2.58,7.25,6.3,8.29l27.52,7.65c2.59,9.73,6.44,18.94,11.37,27.44l-14.05,24.87c-1.9,3.36-1.32,7.58,1.41,10.31
		l9.29,9.29l9.29,9.29c2.73,2.73,6.95,3.31,10.31,1.41l24.87-14.05c8.51,4.93,17.72,8.79,27.44,11.37l7.65,27.52
		c1.03,3.72,4.42,6.3,8.29,6.3h13.14h13.14c3.86,0,7.25-2.58,8.29-6.3l7.65-27.52c9.73-2.59,18.94-6.44,27.44-11.37L320.76,493
		c3.36,1.9,7.58,1.32,10.31-1.41l9.29-9.29l9.29-9.29c2.73-2.73,3.31-6.95,1.41-10.31l-14.05-24.87
		c4.93-8.51,8.79-17.72,11.37-27.44l27.52-7.65c3.72-1.03,6.3-4.42,6.3-8.29v-13.14v-13.14
		C382.19,364.31,379.62,360.93,375.9,359.89z M239.37,459.18c-43.01,0-77.87-34.86-77.87-77.87c0-43.01,34.86-77.87,77.87-77.87
		c43.01,0,77.87,34.86,77.87,77.87C317.25,424.32,282.38,459.18,239.37,459.18z"/>
	<path style="fill:#62A97F;" d="M461.17,210.66c0.78-4.48,1.2-9.08,1.2-13.78c0-4.7-0.43-9.3-1.2-13.78l18.34-18.69
		c2.59-2.64,3.11-6.69,1.26-9.9l-6.3-10.91l-6.3-10.91c-1.85-3.21-5.62-4.79-9.2-3.86l-25.36,6.54
		c-7.04-5.89-15.09-10.6-23.87-13.81l-7-25.19c-0.99-3.57-4.24-6.04-7.95-6.04h-12.6h-12.6c-3.7,0-6.95,2.47-7.95,6.04l-7,25.19
		c-8.78,3.21-16.84,7.92-23.87,13.81l-25.36-6.54c-3.59-0.93-7.35,0.65-9.2,3.86l-6.3,10.91l-6.3,10.91
		c-1.85,3.21-1.34,7.26,1.26,9.9l18.34,18.69c-0.78,4.48-1.2,9.08-1.2,13.78c0,4.7,0.43,9.3,1.2,13.78l-18.34,18.69
		c-2.59,2.64-3.11,6.69-1.26,9.9l6.3,10.91l6.3,10.91c1.85,3.21,5.62,4.79,9.2,3.86l25.36-6.54c7.03,5.89,15.09,10.59,23.87,13.8
		l7.01,25.21c0.99,3.57,4.24,6.04,7.95,6.04h12.6h12.6c3.7,0,6.95-2.47,7.95-6.04l7.01-25.21c8.78-3.21,16.83-7.91,23.87-13.8
		l25.36,6.54c3.59,0.93,7.35-0.65,9.2-3.86l6.3-10.91l6.3-10.91c1.85-3.21,1.34-7.26-1.26-9.9L461.17,210.66z M382.19,246.16
		c-27.21,0-49.27-22.06-49.27-49.27c0-27.21,22.06-49.27,49.27-49.27s49.27,22.06,49.27,49.27
		C431.47,224.1,409.41,246.16,382.19,246.16z"/>
</g>
<g>
	<path style="fill:#465A50;" d="M779.77,215.73c0,50.88,0,127.19,0,228.94c1.16,2.05,3.21,4.82,6.14,8.33c0,3.51,0,8.63,0,15.35
		c1.75,1.17,4.39,3.07,7.89,5.7c1.17,1.75,2.92,4.24,5.26,7.46c0,2.34,0,5.85,0,10.53c-15.79,0-39.47,0-71.05,0
		c0-4.67,0-11.69,0-21.05c2.04-1.16,4.97-2.78,8.77-4.82c0.29-1.46,0.73-3.51,1.32-6.14c0-2.34,0-5.7,0-10.09
		c1.75-1.46,4.23-3.8,7.46-7.02c0-50,0-125.14,0-225.43c-9.94,61.11-24.85,152.62-44.73,274.55c-7.61,0-19.01,0-34.21,0
		c-10.53-61.11-26.17-152.62-46.93-274.55c0,50.29,0,125.43,0,225.43c1.46,1.75,3.8,4.1,7.02,7.02c0,2.34,0,5.7,0,10.09
		c0.29,1.47,0.73,3.51,1.32,6.14c2.04,0.88,5.11,2.49,9.21,4.82c0,4.68,0,11.7,0,21.05c-15.79,0-39.47,0-71.05,0
		c0-2.34,0-5.85,0-10.53c1.16-1.46,2.78-3.95,4.82-7.46c1.75-1.16,4.53-3.07,8.33-5.7c0-3.51,0-8.62,0-15.35
		c1.16-1.75,3.21-4.53,6.14-8.33c0-50.88,0-127.19,0-228.94c-1.47-1.75-3.51-4.39-6.14-7.89c0-3.51,0-8.62,0-15.35
		c-2.05-1.16-4.82-3.07-8.33-5.7c-1.17-1.75-2.78-4.39-4.82-7.89c0-2.34,0-5.7,0-10.09c15.79,0,39.47,0,71.05,0
		c11.4,51.46,28.8,128.8,52.19,232.01c8.48-51.46,21.34-128.79,38.6-232.01c15.79,0,39.47,0,71.05,0c0,2.34,0,5.7,0,10.09
		c-1.17,1.75-2.93,4.39-5.26,7.89c-1.75,1.17-4.39,3.07-7.89,5.7c0,3.51,0,8.63,0,15.35C784.45,209.59,782.4,212.22,779.77,215.73z"
		/>
	<path style="fill:#465A50;" d="M949.06,448.62c2.63-1.75,7.02-4.82,13.16-9.21c5.85-4.67,10.23-7.6,13.16-8.77
		c0.88,0.88,1.75,1.91,2.63,3.07c0.88,1.17,1.32,2.49,1.32,3.95c0,4.39-3.8,11.12-11.4,20.17c-7.89,9.07-14.33,16.52-19.3,22.37
		c-0.88,0.59-1.75,1.03-2.63,1.32c-0.88,0.59-1.75,1.17-2.63,1.75c-12.28,5.85-24.42,8.77-36.4,8.77c-2.34,0-4.68-0.14-7.02-0.44
		c-14.62-1.16-28.07-5.55-40.35-13.16c-1.75-0.88-3.36-1.9-4.82-3.07c-1.75-0.88-3.51-2.04-5.26-3.51c-0.88,0-2.05-0.14-3.51-0.44
		c-1.47-0.29-3.07-0.58-4.82-0.88c-0.29-0.58-0.44-1.32-0.44-2.19c-0.29-0.88-0.59-1.75-0.88-2.63c-0.29-0.88-0.44-1.75-0.44-2.63
		s-0.15-1.75-0.44-2.63c-1.75,0-3.51,0-5.26,0c-1.75-0.29-3.8-0.58-6.14-0.88c0.29-2.04,0.58-4.09,0.88-6.14
		c0.58-2.04,0.88-4.09,0.88-6.14c-0.88-0.58-2.05-1.02-3.51-1.32c-1.47-0.29-3.07-0.73-4.82-1.32c-0.59-0.88-1.17-1.75-1.75-2.63
		c-0.59-1.16-1.17-2.48-1.75-3.95c0.88-0.29,1.75-0.88,2.63-1.75c0.88-0.58,1.9-1.16,3.07-1.75c0-0.58,0-1.16,0-1.75
		c0-0.58,0-1.32,0-2.19c-1.17-0.29-2.49-0.58-3.95-0.88c-1.17-0.29-2.49-0.58-3.95-0.88c-0.29-1.46-0.44-2.92-0.44-4.39
		c-0.29-1.46-0.44-2.92-0.44-4.39c1.17-0.29,2.19-0.73,3.07-1.32c0.88-0.29,1.75-0.73,2.63-1.32c-0.29-0.58-0.59-1.16-0.88-1.75
		c0-0.58-0.15-1.02-0.44-1.32c-0.88-0.29-1.9-0.58-3.07-0.88c-1.17-0.58-2.19-1.02-3.07-1.32c0-1.46,0-2.92,0-4.38
		c0-1.16,0-2.63,0-4.39c0.88,0,1.75-0.29,2.63-0.88c0.88-0.29,2.04-0.73,3.51-1.32c0-0.58,0-1.16,0-1.75
		c0.29-0.58,0.44-1.17,0.44-1.75c-0.88-0.58-1.75-1.02-2.63-1.32c-1.17-0.58-2.34-1.16-3.51-1.75c0-0.88,0-1.9,0-3.07
		c0-1.17,0-2.34,0-3.51c0.88,0,2.04-0.29,3.51-0.88c1.16-0.29,2.34-0.58,3.51-0.88c1.46-1.75,1.6-3.22,0.44-4.39
		c-1.17-1.16-2.49-2.34-3.95-3.51c0-1.16,0-2.19,0-3.07c0-1.16,0.14-2.19,0.44-3.07c1.17-0.29,2.48-0.58,3.95-0.88
		c1.17-0.29,2.48-0.44,3.95-0.44c0.29-0.58,0.58-1.16,0.88-1.75c0.29-0.58,0.58-1.32,0.88-2.19c-0.88-0.88-1.75-1.6-2.63-2.19
		c-0.88-0.88-1.9-1.75-3.07-2.63c0.29-0.88,0.58-1.6,0.88-2.19c0-0.88,0.14-1.6,0.44-2.19c1.46-0.29,2.92-0.58,4.39-0.88
		c1.46,0,2.92-0.14,4.39-0.44c1.46-1.75,1.6-3.51,0.44-5.26c-0.88-1.46-1.17-3.07-0.88-4.82c0.29-0.29,0.73-0.73,1.32-1.32
		c0.29-0.58,0.73-1.16,1.32-1.75c1.16,0,2.48,0,3.95,0c1.46,0,3.07,0,4.82,0c0.29-1.75,0.58-3.51,0.88-5.26
		c0.29-1.75,0.58-3.65,0.88-5.7c1.46,0,2.92,0,4.39,0c1.46-0.29,3.07-0.58,4.82-0.88c4.39-3.8,9.5-7.02,15.35-9.65
		c5.85-2.92,12.57-4.82,20.17-5.7c5.55-0.88,10.96-1.32,16.23-1.32s10.37,0.29,15.35,0.88c10.23,1.47,19.74,4.82,28.51,10.09
		c4.97,5.85,11.4,13.31,19.3,22.37c7.89,8.77,11.84,15.5,11.84,20.17h-0.44c0,1.75-0.44,3.07-1.32,3.95
		c-0.88,1.17-1.75,2.34-2.63,3.51c-2.93-1.75-7.31-4.97-13.16-9.65c-6.14-4.67-10.53-7.74-13.16-9.21
		c-5.56-4.97-11.99-8.92-19.3-11.84c-7.02-2.92-14.47-4.39-22.37-4.39c-17.26,0-31.87,6-43.86,17.98
		c-12.28,12.28-18.42,26.9-18.42,43.86c0,17.26,6.14,31.87,18.42,43.86c11.99,12.28,26.6,18.42,43.86,18.42
		c7.89,0,15.35-1.46,22.37-4.39C937.07,457.54,943.51,453.59,949.06,448.62z"/>
	<path style="fill:#465A50;" d="M1149.93,397.74c0.29,1.17,0.44,2.34,0.44,3.51c0,4.39-0.44,8.77-1.32,13.16
		c-0.88,5.26-2.19,10.38-3.95,15.35c-2.63,7.61-6.58,14.62-11.84,21.05c-5.56,6.14-11.26,12.14-17.1,17.98
		c-5.85,5.56-12.28,10.24-19.3,14.03c-7.31,3.8-14.91,6.29-22.81,7.46c-6.14,1.17-11.84,1.75-17.11,1.75c-0.59,0-1.17,0-1.75,0
		c-5.56,0-12.87,0-21.93,0h-18.42c-12.57,0-18.42,0-17.54,0v-10.09c0-6.72,0-14.47,0-23.24c0-10.23,0-20.17,0-29.82v-14.47
		c1.75,0,4.39,0,7.89,0c0.29,0.59,0.88,1.32,1.75,2.19c0.88,0.88,1.46,1.61,1.75,2.19c2.04,6.44,4.67,12.57,7.9,18.42
		c3.51,5.85,7.74,11.12,12.72,15.79c5.26,4.68,11.4,8.63,18.42,11.84c6.72,3.22,13.74,4.38,21.05,3.51c6.43,0,14.03-3.21,22.81-9.65
		c9.06-6.72,15.35-14.03,18.86-21.93c1.75-3.8,3.07-7.6,3.95-11.4c0.58-4.09,1.02-8.18,1.32-12.28c0-0.88,0-1.9,0-3.07
		c0-1.17,0-2.19,0-3.07c0-1.16,0-2.34,0-3.51c0-1.16-0.15-2.34-0.44-3.51c-0.29-2.34-0.59-4.53-0.88-6.58
		c-0.29-2.34-0.59-4.53-0.88-6.58c-1.75-8.48-4.68-16.08-8.77-22.81c-4.39-6.72-9.94-12.86-16.67-18.42
		c-3.51-2.92-7.31-5.55-11.4-7.89c-4.1-2.63-8.33-4.97-12.72-7.02l-17.1-6.58c-11.12-4.39-19.15-8.62-24.12-12.72
		c-1.17-0.88-2.49-1.9-3.95-3.07c-1.17-1.17-2.34-2.19-3.51-3.07c-3.22-3.21-5.85-6.72-7.89-10.53c-2.05-3.51-3.8-7.45-5.26-11.84
		c-2.93-9.65-4.82-20.17-5.7-31.58c-0.29-2.04-0.44-4.24-0.44-6.58c0-8.77,1.32-16.95,3.95-24.56c2.92-9.35,7.74-17.98,14.47-25.88
		c6.72-7.89,14.47-14.03,23.24-18.42c8.18-4.09,16.95-5.99,26.31-5.7c9.65,0.29,17.83,3.51,24.56,9.65
		c2.04,2.05,4.09,4.24,6.14,6.58c2.34,2.34,4.67,3.95,7.02,4.82c2.92,0.29,5.7-0.44,8.33-2.19c2.34-1.46,4.39-3.36,6.14-5.7
		c1.75-2.04,3.07-4.24,3.95-6.58c0.88-2.34,1.02-4.82,0.44-7.46c-0.29-2.34-1.32-4.53-3.07-6.58c-1.75-2.04-3.95-3.07-6.58-3.07
		c-2.93-0.29-5.26,0.73-7.02,3.07c-1.75,2.34-2.19,4.54-1.32,6.58c-2.05,0.3-3.8-0.29-5.26-1.75c-1.47-1.46-2.34-3.21-2.63-5.26
		c-0.59-2.04-0.44-4.09,0.44-6.14c0.58-2.04,1.46-3.8,2.63-5.26c3.8-4.97,9.06-7.89,15.79-8.77c1.16-0.29,2.48-0.44,3.95-0.44
		c4.97,0,9.5,1.61,13.6,4.82c4.67,3.51,7.89,8.33,9.65,14.47c1.46,6.14,2.19,12.28,2.19,18.42c0.29,7.61-0.15,15.06-1.32,22.37
		c-0.88,7.31-2.49,14.62-4.82,21.93c-1.75,4.68-3.8,9.21-6.14,13.6c-2.63,4.39-6,8.05-10.09,10.97c-0.59-2.34-1.61-4.39-3.07-6.14
		c-1.47-1.75-3.22-3.36-5.26-4.82c-0.59-0.29-1.17-0.58-1.75-0.88c-0.59-0.58-0.88-1.02-0.88-1.32c-0.29-0.88-0.44-1.6-0.44-2.19
		c0.29-0.58,0.44-1.16,0.44-1.75c0-2.63-0.44-4.97-1.32-7.02c-1.17-2.04-2.49-4.09-3.95-6.14c-2.34-4.09-5.12-7.74-8.33-10.96
		c-3.22-3.51-6.58-6.72-10.09-9.65c-3.51-2.63-7.61-4.67-12.28-6.14c-4.39-1.75-8.92-2.34-13.6-1.75
		c-6.73,0.88-12.72,3.66-17.98,8.33c-5.26,4.98-9.07,10.68-11.4,17.11c-2.05,6.43-2.78,13.16-2.19,20.17
		c0.58,7.02,1.9,13.75,3.95,20.17c2.34,6.14,5.26,11.99,8.77,17.54c3.51,5.56,7.89,10.38,13.16,14.47
		c6.43,5.26,13.6,9.36,21.49,12.28c7.89,2.63,15.49,6,22.81,10.09c7.31,4.1,14.18,9.21,20.61,15.35
		c6.43,6.14,11.69,12.72,15.79,19.74c4.67,7.89,8.33,16.38,10.96,25.44C1148.62,379.18,1149.93,388.39,1149.93,397.74z"/>
	<path style="fill:#465A50;" d="M1219.23,303.45c0,4.1,0,9.94,0,17.54c0,1.47,0,3.37,0,5.7c-0.29,2.05-0.59,4.82-0.88,8.33
		c-0.88,3.22-1.61,6.29-2.19,9.21c-0.29,3.22-0.29,6.44,0,9.65c-0.29,0.88-0.59,2.49-0.88,4.82c0,20.47,0,51.31,0,92.54
		c0.88,2.05,1.02,3.95,0.44,5.7c-0.59,1.75,0,3.07,1.75,3.95c0.88,2.63,2.04,6.44,3.51,11.4c0.58,0.88,1.32,2.19,2.19,3.95
		c1.16,0.88,2.92,2.05,5.26,3.51c0,2.63,0,6.58,0,11.84c-12.87,0-32.02,0-57.45,0c0-2.34,0-5.99,0-10.96
		c1.75-1.46,4.53-3.51,8.33-6.14c0.58-1.75,1.17-4.53,1.75-8.33c0.88-1.75,2.34-4.53,4.39-8.33c0-21.34,0-53.36,0-96.05
		c-0.59-3.21-0.73-5.99-0.44-8.33c0.58-2.34-0.15-4.53-2.19-6.58c-0.29-3.51-0.73-8.62-1.32-15.35c0-3.8,0.14-7.02,0.44-9.65
		c0-2.92-0.88-5.41-2.63-7.46c0-2.34,0-5.99,0-10.96h-0.44c7.6,0,14.62,0,21.05,0C1206.07,303.45,1212.5,303.45,1219.23,303.45z
		 M1193.79,281.08c-6.14-0.88-10.38-3.8-12.72-8.77c-2.34-5.26-2.49-11.11-0.44-17.54c1.75-5.26,5.41-9.35,10.96-12.28
		c2.92-1.75,5.7-2.63,8.33-2.63c2.34,0,4.82,0.59,7.46,1.75c3.8,2.05,7.02,5.7,9.65,10.96c2.34,4.98,3.36,10.24,3.07,15.79
		c-0.29,5.85-3.36,9.65-9.21,11.4C1205.04,281.52,1199.34,281.96,1193.79,281.08z"/>
	<path style="fill:#465A50;" d="M1250.8,168.8c11.69,0,29.23,0,52.63,0c25.14,50.88,62.57,127.34,112.28,229.38
		c5.26,8.48,10.09,13.01,14.47,13.6c4.39,0.59,6.58-3.95,6.58-13.6c0-41.51,0-103.94,0-187.27c-2.63-2.63-6.43-6.43-11.4-11.4
		c0-6.72,0-16.95,0-30.7c12.57,0,31.58,0,57.02,0c0,7.31,0,18.28,0,32.89c-1.47,2.05-3.8,5.12-7.02,9.21c0,62.57,0,156.29,0,281.13
		c-11.4,0-28.22,0-50.44,0c0-4.09,0-10.09,0-17.98c-26.31-49.41-65.79-123.53-118.42-222.36c-0.29,47.08-0.44,117.39-0.44,210.96
		c1.46,1.47,3.95,3.66,7.46,6.58c1.75,1.47,4.24,3.51,7.46,6.14c0,3.8,0,9.36,0,16.67c-14.33,0-35.96,0-64.91,0
		c0-4.67,0-11.84,0-21.49c1.46,0,3.8,0,7.02,0c1.46-2.34,3.51-5.99,6.14-10.96c0-55.84,0-139.76,0-251.74
		c-4.1-2.04-10.24-5.11-18.42-9.21C1250.8,191.9,1250.8,181.96,1250.8,168.8z"/>
	<path style="fill:#465A50;" d="M1996.83,465.72c0.58-2.63,1.46-6.28,2.63-10.96c0.58-1.75,1.46-4.39,2.63-7.89
		c-0.29-9.94-0.59-24.85-0.88-44.73c-0.59-13.16-4.54-24.56-11.84-34.21c-7.31-9.65-16.23-17.25-26.75-22.81
		c-2.05-1.16-5.12-2.19-9.21-3.07c-3.8-0.88-7.17-1.32-10.09-1.32c-5.85,0-11.84,0.59-17.98,1.75c-6.14,1.17-12.14,3.22-17.98,6.14
		c0,22.22,0,55.56,0,100c0.29,1.17,0.73,3.07,1.32,5.7c0.29,2.05,1.02,5.41,2.19,10.09c0.88,0.88,2.34,2.49,4.39,4.82
		c0.58,1.17,1.6,3.07,3.07,5.7c0.58,1.17,1.32,2.93,2.19,5.26c0.29,2.63,0.58,6.58,0.88,11.84c-12.28,0-31,0-56.14,0
		c0-1.75,0-4.23,0-7.46c1.75-2.63,4.23-6.58,7.46-11.84c1.16-1.46,3.07-3.65,5.7-6.58c0.29-2.63,0.73-6.43,1.32-11.4
		c0.58-1.75,1.6-4.53,3.07-8.33c0.58-4.67,1.32-11.55,2.19-20.61c0-15.49,0-38.74,0-69.73c-0.59-2.04-1.47-4.97-2.63-8.77
		c0-2.34,0.14-5.85,0.44-10.53c-1.17-1.46-2.78-3.8-4.82-7.02c-5.85-2.63-14.47-6.43-25.88-11.4c0-1.75,0-4.53,0-8.33
		c12.57,0,31.28,0,56.14,0c0,2.05,0,4.98,0,8.77c9.35-3.8,18.56-5.85,27.63-6.14c9.35,0,18.42,1.47,27.19,4.39v-0.44h0.44
		c1.16-0.58,2.34-1.32,3.51-2.19c1.16-0.88,2.48-1.75,3.95-2.63c0.88,0.29,2.04,0.73,3.51,1.32c1.16,0.3,2.34,0.59,3.51,0.88
		c-0.29,1.17-0.59,2.19-0.88,3.07c-0.3,1.17-0.59,2.49-0.88,3.95c0.58,0.59,1.6,1.47,3.07,2.63c0.88-0.88,1.9-1.6,3.07-2.19
		c1.16-0.58,2.48-1.32,3.95-2.19c1.16,0.88,2.34,1.75,3.51,2.63c0.88,0.88,1.9,1.75,3.07,2.63c-0.3,1.17-0.73,2.19-1.32,3.07
		c-0.29,0.88-0.59,1.75-0.88,2.63c0.58,0.29,1.16,0.59,1.75,0.88c0.58,0.3,1.02,0.44,1.32,0.44c0.88-0.29,1.75-0.73,2.63-1.32
		c1.16-0.29,2.34-0.73,3.51-1.32c1.16,1.47,3.07,3.51,5.7,6.14c-0.59,0.59-1.03,1.32-1.32,2.19c-0.29,0.88-0.73,2.05-1.32,3.51
		c0.29,0.29,0.58,0.73,0.88,1.32c0.29,0.59,0.73,1.03,1.32,1.32c0.88-0.29,1.9-0.58,3.07-0.88c1.16-0.58,2.34-1.02,3.51-1.32
		c1.16,0.88,2.78,2.34,4.82,4.39c-0.88,0.88-1.61,1.9-2.19,3.07c-0.29,0.88-0.88,1.75-1.75,2.63c0.58,0.88,1.02,1.61,1.32,2.19
		c0.58,0.59,1.02,1.32,1.32,2.19c0.88,0,1.75,0,2.63,0c1.16-0.29,2.19-0.44,3.07-0.44c0.58,0.88,1.16,1.61,1.75,2.19
		c0.88,0.88,1.6,1.75,2.19,2.63c-0.88,0.88-1.61,1.75-2.19,2.63c-0.59,0.88-1.32,1.91-2.19,3.07c0.29,0.88,0.58,1.61,0.88,2.19
		c0.29,0.88,0.58,1.61,0.88,2.19c1.16,0,2.19,0,3.07,0c1.16,0,2.34-0.14,3.51-0.44c0.58,0.88,1.02,1.61,1.32,2.19
		c0.58,0.59,0.88,1.32,0.88,2.19c-0.88,1.17-1.61,2.34-2.19,3.51c-0.88,1.17-1.75,2.34-2.63,3.51c0,2.63,1.02,4.1,3.07,4.39
		c1.75,0.29,3.07,1.03,3.95,2.19c0,0.88,0.14,1.61,0.44,2.19c0,0.59,0,1.32,0,2.19c-1.17,1.17-3.22,3.22-6.14,6.14
		c1.16,1.47,2.19,2.93,3.07,4.39c0.88,1.47,1.9,2.93,3.07,4.38c-0.88,1.17-1.75,2.34-2.63,3.51c-0.88,1.17-1.9,2.49-3.07,3.95
		c-0.29,2.05-0.59,4.1-0.88,6.14c-0.3,2.05-0.73,4.24-1.32,6.58c0,4.68-0.15,8.92-0.44,12.72c0,4.1,0,7.17,0,9.21
		c0.29,1.17,0.73,3.07,1.32,5.7c0.58,2.05,1.32,5.26,2.19,9.65c1.16,0.88,2.78,2.49,4.82,4.82c0.88,1.17,2.04,3.07,3.51,5.7
		c0.29,1.17,1.02,2.93,2.19,5.26c0,2.63,0.14,6.58,0.44,11.84c-12.28,0-30.7,0-55.26,0c0-1.75,0-4.39,0-7.89
		c1.75-2.63,4.24-6.58,7.46-11.84c0.88-1.16,1.75-2.34,2.63-3.51C1995.51,467.63,1996.24,466.6,1996.83,465.72z"/>
	<path style="fill:#465A50;" d="M2221.82,472.3c3.51,2.34,8.62,6,15.35,10.97c0,1.75,0,4.68,0,8.77c-10.82,0-27.19,0-49.12,0
		c0-2.63,0-6.43,0-11.4v-0.44c-6.73,5.56-14.19,9.94-22.37,13.16c-8.48,2.92-17.4,4.38-26.75,4.38c-7.89,0-15.5-1.17-22.81-3.51
		c-7.31-2.34-13.89-5.41-19.74-9.21c-1.17-0.88-2.19-1.75-3.07-2.63c-1.17-0.88-2.49-1.75-3.95-2.63c-0.59,0-1.47-0.14-2.63-0.44
		c-1.47-0.29-2.93-0.58-4.39-0.88c-0.3-0.58-0.59-1.32-0.88-2.19c-0.29-0.88-0.44-1.6-0.44-2.19c-0.29-0.29-0.44-0.88-0.44-1.75
		c0-0.58,0.14-1.16,0.44-1.75c-0.29,0-0.44-0.14-0.44-0.44c-1.75,0-3.36-0.14-4.82-0.44c-1.47,0-3.07-0.14-4.82-0.44
		c0-2.04,0.14-3.95,0.44-5.7c0.29-1.75,0.58-3.51,0.88-5.26h-0.44v-0.44c-0.88-0.29-1.91-0.44-3.07-0.44
		c-1.17-0.29-2.49-0.73-3.95-1.32c-0.59-0.58-1.03-1.46-1.32-2.63c-0.59-0.88-1.17-1.9-1.75-3.07c0.58-0.58,1.31-1.02,2.19-1.32
		c0.88-0.58,1.75-1.17,2.63-1.75v-0.44c-0.3-0.88-0.59-1.6-0.88-2.19c0-0.29-0.15-0.88-0.44-1.75c-0.88,0-1.75-0.14-2.63-0.44
		c-1.17-0.29-2.19-0.58-3.07-0.88c-0.29-1.16-0.44-2.34-0.44-3.51c-0.29-1.16-0.44-2.34-0.44-3.51c0.58-0.29,1.16-0.58,1.75-0.88
		c0.58-0.29,1.32-0.58,2.19-0.88c0-0.58-0.15-1.16-0.44-1.75c0-0.58,0-1.02,0-1.32c-0.88-0.29-1.75-0.58-2.63-0.88
		c-0.59-0.29-1.47-0.58-2.63-0.88c0-1.16,0-2.34,0-3.51c0-1.16,0-2.48,0-3.95c0.88-0.29,1.6-0.58,2.19-0.88
		c0.88-0.29,1.75-0.58,2.63-0.88c0-0.58,0-1.32,0-2.19c0-0.58,0-1.16,0-1.75c-0.88-0.58-1.61-1.02-2.19-1.32
		c-0.59-0.29-1.47-0.58-2.63-0.88c0-0.88,0-1.75,0-2.63c0-0.88,0-1.9,0-3.07c1.17,0,2.19-0.14,3.07-0.44
		c0.88-0.29,1.75-0.58,2.63-0.88c0-0.58,0-1.32,0-2.19c0.29-0.88,0.58-1.6,0.88-2.19c-0.59-0.29-1.03-0.73-1.32-1.32
		c-0.59-0.29-1.17-0.73-1.75-1.32c0-0.88,0-1.75,0-2.63c0-0.88,0.14-1.75,0.44-2.63c0.88,0,1.9-0.14,3.07-0.44c0.88,0,2.04,0,3.51,0
		c0.29-0.88,0.58-1.6,0.88-2.19c0.29-0.58,0.58-1.32,0.88-2.19c-0.59-0.58-1.32-1.16-2.19-1.75c-0.59-0.29-1.17-0.88-1.75-1.75
		c0.29-0.88,0.44-1.6,0.44-2.19c0.29-0.58,0.58-1.16,0.88-1.75c1.46-0.29,2.78-0.44,3.95-0.44c0.88-0.29,1.9-0.58,3.07-0.88
		c0.29-0.29,0.44-0.58,0.44-0.88c0.29,0,0.44-0.14,0.44-0.44c0.58-1.46,0.44-2.77-0.44-3.95c-0.59-1.16-0.88-2.19-0.88-3.07
		c0.58-0.58,1.02-1.16,1.32-1.75c0.29-0.29,0.58-0.73,0.88-1.32c0.88,0,1.9,0,3.07,0c0.88,0,2.04,0,3.51,0
		c0.29-0.29,0.44-0.58,0.44-0.88c0.29-0.29,0.58-0.58,0.88-0.88c0.29-1.16,0.44-2.34,0.44-3.51c0.29-1.16,0.58-2.48,0.88-3.95
		c1.16,0,2.34-0.14,3.51-0.44c1.17,0,2.48-0.14,3.95-0.44c3.8-2.92,8.04-5.55,12.72-7.89c4.97-2.34,10.38-4.09,16.23-5.26
		c2.92-0.58,5.85-1.16,8.77-1.75c2.92-0.29,5.99-0.44,9.21-0.44c6.43,0,12.57,0.73,18.42,2.19c5.85,1.47,11.55,3.51,17.1,6.14
		c-3.51-4.09-7.17-7.74-10.96-10.96c-3.8-3.51-8.05-6.43-12.72-8.77c-1.75-0.88-4.68-1.9-8.77-3.07c-4.1-0.88-7.61-1.32-10.53-1.32
		c-5.85,0-11.7,0.59-17.54,1.75c-6.14,1.17-12.28,3.36-18.42,6.58c-7.31,0.88-18.57,2.49-33.77,4.82
		c-1.17-2.34-2.78-5.85-4.82-10.53c8.77-4.39,22.07-11.11,39.91-20.17c9.35-3.8,18.56-5.7,27.63-5.7
		c9.35-0.29,18.27,1.03,26.75,3.95c0.29,0,0.44-0.14,0.44-0.44c1.16-0.29,2.34-0.88,3.51-1.75c1.46-0.88,2.92-1.75,4.38-2.63
		c0.88,0.29,1.75,0.59,2.63,0.88c0.88,0,1.9,0.29,3.07,0.88c0,0.88,0,1.9,0,3.07c0,1.47-0.15,2.78-0.44,3.95
		c0.58,0.59,1.46,1.61,2.63,3.07c1.16-1.16,2.34-2.04,3.51-2.63c1.16-0.58,2.48-1.32,3.95-2.19c1.16,0.88,2.19,1.75,3.07,2.63
		c1.16,0.88,2.34,1.9,3.51,3.07c-0.3,0.88-0.73,1.91-1.32,3.07c-0.29,0.88-0.59,1.75-0.88,2.63c0.29,0.29,0.88,0.44,1.75,0.44
		c0.58,0.29,1.02,0.59,1.31,0.88c0.58-0.58,1.46-1.02,2.63-1.32c1.16-0.58,2.19-1.02,3.07-1.32c1.46,1.17,3.36,3.07,5.7,5.7
		c-0.59,0.59-1.03,1.47-1.31,2.63c-0.29,0.88-0.73,1.9-1.32,3.07c0.29,0.59,0.58,1.17,0.88,1.75c0.29,0.29,0.73,0.73,1.32,1.32
		c0.88-0.29,1.9-0.73,3.07-1.32c0.88-0.29,2.04-0.73,3.51-1.32c0.88,1.17,2.34,2.78,4.38,4.82c-0.59,0.88-1.17,1.75-1.75,2.63
		c-0.59,1.17-1.17,2.19-1.75,3.07c0.58,0.59,1.02,1.32,1.32,2.19c0.58,0.59,1.02,1.17,1.31,1.75c0.88,0.3,1.75,0.3,2.63,0
		c0.88,0,1.9-0.14,3.07-0.44c0.58,0.88,1.16,1.75,1.75,2.63c0.58,0.59,1.32,1.32,2.19,2.19c-0.88,1.17-1.61,2.19-2.19,3.07
		c-0.59,0.88-1.32,1.9-2.19,3.07c0.29,0.59,0.58,1.32,0.88,2.19c0.29,0.88,0.58,1.61,0.88,2.19c0.88,0,1.9,0,3.07,0
		c0.88,0,2.04-0.14,3.51-0.44c0.58,0.59,1.02,1.32,1.32,2.19c0.29,0.59,0.58,1.17,0.88,1.75c-0.88,1.47-1.75,2.78-2.63,3.95
		c-0.59,1.17-1.32,2.34-2.19,3.51c0,2.34,0.88,3.66,2.63,3.95c2.04,0.29,3.51,1.17,4.39,2.63c0,0.59,0.14,1.32,0.44,2.19
		c0,0.59,0,1.17,0,1.75c-1.47,1.47-3.51,3.66-6.14,6.58c1.17,1.47,2.19,2.93,3.07,4.38c0.88,1.47,1.9,2.93,3.07,4.39
		c-1.17,1.17-2.05,2.34-2.63,3.51c-0.88,1.17-1.91,2.34-3.07,3.51c-0.29,0.59-0.59,1.17-0.88,1.75c0,0.59-0.15,1.32-0.44,2.19
		c0.29,1.75,0.44,3.51,0.44,5.26c0.29,2.05,0.44,3.95,0.44,5.7c0,3.8-0.29,7.61-0.88,11.4c-0.3,3.51-1.03,7.02-2.19,10.53
		c0,0.88,0,2.34,0,4.39c0.58,1.75,1.46,4.54,2.63,8.33c0.29,2.34,0.88,6,1.75,10.96c0.88,0.88,1.75,1.9,2.63,3.07
		C2220.21,469.96,2220.94,471.13,2221.82,472.3z M2138.93,466.16c12.57,0,23.09-4.53,31.58-13.6c8.48-8.77,12.72-19.44,12.72-32.02
		c0-12.57-4.54-23.39-13.6-32.46c-8.77-8.77-19.45-13.16-32.02-13.16c-1.75,0-3.66,0.15-5.7,0.44c-1.75,0-3.51,0.3-5.26,0.88
		c-0.3,0-0.59,0-0.88,0c-0.29,0-0.59,0-0.88,0c-2.63,0.29-5.12,1.03-7.46,2.19c-2.63,1.17-4.82,2.49-6.58,3.95
		c-0.88,0.88-2.19,2.05-3.95,3.51c-0.59,0.59-1.47,1.47-2.63,2.63c0,0.3-0.15,0.59-0.44,0.88h-0.44v0.44
		c-0.59,0.59-1.47,1.61-2.63,3.07v0.44c-0.59,0.29-1.17,1.03-1.75,2.19c-0.29,0-0.44,0.15-0.44,0.44v0.44
		c-0.29,0.59-0.73,1.32-1.32,2.19c-0.29,0.59-0.88,1.47-1.75,2.63c0,0.59,0,1.03,0,1.32c-0.29,0.59-0.59,1.03-0.88,1.32
		c0,0.59-0.29,1.47-0.88,2.63c0,0.59-0.15,1.61-0.44,3.07c0,0.3,0,0.73,0,1.32c-0.29,0.29-0.44,0.73-0.44,1.32
		c0,0.59-0.15,1.47-0.44,2.63c0,0.59,0,1.47,0,2.63c0,0.3,0,0.59,0,0.88c0,0.59,0,1.03,0,1.32c0,0.88,0,1.9,0,3.07
		c0.29,0.88,0.44,1.91,0.44,3.07c0.29,0.29,0.44,0.73,0.44,1.32c0,0.29,0,0.59,0,0.88c0.29,0.59,0.44,1.61,0.44,3.07
		c0,0.59,0,1.47,0,2.63c0.29,0.29,0.44,0.73,0.44,1.32c0.29,0.29,0.44,0.59,0.44,0.88c0.29,0.59,0.88,1.61,1.75,3.07
		c0.29,0.59,0.58,1.17,0.88,1.75c0.29,0.59,0.58,1.03,0.88,1.32v0.44c0.29,0.88,1.02,2.19,2.19,3.95c0.29,0.29,0.73,0.73,1.31,1.32
		c0.29,0.59,0.73,1.17,1.32,1.75l0.44,0.44c0.88,0.88,2.19,2.49,3.95,4.82c0.58,0.29,1.02,0.59,1.32,0.88
		c0.29,0,0.58,0.15,0.88,0.44c0.58,0.3,1.02,0.59,1.32,0.88c0.58,0,0.88,0.15,0.88,0.44c0.29,0,0.73,0.15,1.32,0.44l0.44,0.44
		c3.8,2.63,7.89,4.54,12.28,5.7C2129.86,465.43,2134.25,466.16,2138.93,466.16z"/>
</g>
<path style="fill:#62A97F;" d="M1798.36,351.53c1.23-7.11,1.91-14.42,1.91-21.88c0-7.47-0.68-14.77-1.91-21.88l29.14-29.7
	c4.12-4.2,4.94-10.63,2-15.73L1819.49,245l-10.01-17.33c-2.94-5.1-8.92-7.61-14.62-6.14l-40.29,10.39
	c-11.18-9.36-23.98-16.84-37.93-21.94l-11.13-40.02c-1.58-5.67-6.74-9.59-12.63-9.59h-20.01h-20.01c-5.89,0-11.05,3.92-12.62,9.59
	l-11.13,40.02c-13.95,5.1-26.75,12.59-37.93,21.94l-40.28-10.39c-5.7-1.47-11.68,1.04-14.62,6.14L1526.28,245l-10.01,17.33
	c-2.94,5.1-2.13,11.53,2,15.73l29.14,29.7c-1.23,7.11-1.91,14.42-1.91,21.88c0,7.47,0.68,14.77,1.91,21.88l-29.14,29.7
	c-4.12,4.2-4.94,10.63-2,15.73l10.01,17.33l10.01,17.33c2.94,5.1,8.92,7.61,14.62,6.14l40.28-10.39
	c11.17,9.35,23.98,16.82,37.92,21.92l11.13,40.04c1.58,5.67,6.74,9.59,12.63,9.59h20.01h20.01c5.89,0,11.05-3.92,12.62-9.59
	l11.13-40.04c13.94-5.11,26.74-12.57,37.92-21.92l40.28,10.39c5.7,1.47,11.68-1.04,14.62-6.14l10.01-17.33l10.01-17.33
	c2.94-5.1,2.13-11.53-2-15.73L1798.36,351.53z M1672.89,407.92c-43.23,0-78.28-35.05-78.28-78.28c0-43.23,35.05-78.28,78.28-78.28
	c43.23,0,78.28,35.05,78.28,78.28C1751.16,372.88,1716.12,407.92,1672.89,407.92z"/>
</svg>
