<?xml version="1.0" encoding="UTF-8"?>
<svg id="Layer_1" data-name="Layer 1" xmlns="http://www.w3.org/2000/svg" viewBox="0 0 1328.52 1547.02">
  <g>
    <path d="m832.84,684.25l-69.85-19.42c-6.57-24.69-16.34-48.07-28.87-69.66l35.67-63.14c4.82-8.54,3.36-19.24-3.57-26.17l-23.58-23.58-23.58-23.58c-6.93-6.93-17.64-8.39-26.17-3.57l-63.14,35.67c-21.59-12.53-44.97-22.3-69.66-28.87l-19.42-69.85c-2.63-9.45-11.23-15.98-21.03-15.98h-66.69c-9.8,0-18.41,6.54-21.03,15.98l-19.42,69.85c-24.69,6.57-48.07,16.34-69.66,28.87l-63.14-35.67c-8.54-4.82-19.24-3.36-26.17,3.57l-23.58,23.58-23.58,23.58c-6.93,6.93-8.39,17.64-3.57,26.17l35.67,63.14c-12.53,21.59-22.3,44.97-28.87,69.66l-69.85,19.42c-9.45,2.63-15.98,11.23-15.98,21.03v66.69c0,9.8,6.54,18.41,15.98,21.03l69.85,19.42c6.57,24.69,16.34,48.07,28.87,69.66l-35.67,63.14c-4.82,8.54-3.36,19.24,3.57,26.17l23.58,23.58,23.58,23.58c6.93,6.93,17.64,8.39,26.17,3.57l63.14-35.67c21.59,12.53,44.97,22.3,69.66,28.87l19.42,69.85c2.63,9.45,11.23,15.98,21.03,15.98h66.69c9.8,0,18.41-6.54,21.03-15.98l19.42-69.85c24.69-6.57,48.07-16.34,69.66-28.87l63.14,35.67c8.54,4.82,19.24,3.36,26.17-3.57l23.58-23.58,23.58-23.58c6.93-6.93,8.39-17.64,3.57-26.17l-35.67-63.14c12.53-21.59,22.3-44.97,28.87-69.66l69.85-19.42c9.45-2.63,15.98-11.23,15.98-21.03v-66.69c0-9.8-6.54-18.41-15.98-21.03Zm-346.54,252.04c-109.17,0-197.67-88.5-197.67-197.67s88.5-197.67,197.67-197.67,197.67,88.5,197.67,197.67-88.5,197.67-197.67,197.67Z" style="fill: #465a50;"/>
    <path d="m1049.3,305.45c1.97-11.37,3.05-23.04,3.05-34.97s-1.08-23.6-3.05-34.97l46.56-47.45c6.59-6.71,7.89-16.99,3.19-25.13l-15.99-27.69-15.99-27.69c-4.7-8.14-14.26-12.15-23.36-9.81l-64.37,16.6c-17.86-14.95-38.31-26.91-60.6-35.06l-17.78-63.95c-2.52-9.06-10.77-15.33-20.17-15.33h-63.96c-9.4,0-17.65,6.27-20.17,15.33l-17.78,63.95c-22.29,8.15-42.73,20.11-60.6,35.06l-64.37-16.6c-9.11-2.35-18.66,1.66-23.36,9.81l-15.99,27.69-15.99,27.69c-4.7,8.14-3.4,18.42,3.19,25.13l46.56,47.45c-1.97,11.37-3.05,23.04-3.05,34.97s1.09,23.6,3.05,34.97l-46.56,47.45c-6.59,6.71-7.89,16.99-3.19,25.13l15.99,27.69,15.99,27.69c4.7,8.14,14.26,12.15,23.36,9.81l64.37-16.6c17.85,14.94,38.31,26.87,60.59,35.03l17.79,63.98c2.52,9.06,10.77,15.33,20.17,15.33h63.96c9.4,0,17.65-6.27,20.17-15.33l17.79-63.98c22.27-8.16,42.73-20.09,60.59-35.03l64.37,16.6c9.11,2.35,18.66-1.66,23.36-9.81l15.99-27.69,15.99-27.69c4.7-8.14,3.4-18.42-3.19-25.13l-46.56-47.45Zm-200.48,90.11c-69.08,0-125.07-56-125.07-125.07s56-125.07,125.07-125.07,125.07,56,125.07,125.07-56,125.07-125.07,125.07Z" style="fill: #62a97f;"/>
  </g>
  <text transform="translate(0 1476.66)" style="fill: #465a50; font-family: &apos;jack_of_gears&apos;, &apos;Jack Of Gears&apos;; font-size: 353.17px;"><tspan x="0" y="0" xml:space="preserve">McSiN   na</tspan></text>
  <path d="m976.21,1366.17c.97-5.59,1.5-11.34,1.5-17.21s-.53-11.62-1.5-17.21l22.92-23.35c3.24-3.3,3.88-8.36,1.57-12.37l-7.87-13.63-7.87-13.63c-2.31-4.01-7.02-5.98-11.5-4.83l-31.68,8.17c-8.79-7.36-18.85-13.24-29.82-17.26l-8.75-31.47c-1.24-4.46-5.3-7.54-9.93-7.54h-31.48c-4.63,0-8.69,3.09-9.93,7.54l-8.75,31.47c-10.97,4.01-21.03,9.9-29.82,17.26l-31.68-8.17c-4.48-1.16-9.18.82-11.5,4.83l-7.87,13.63-7.87,13.63c-2.31,4.01-1.67,9.07,1.57,12.37l22.92,23.35c-.97,5.59-1.5,11.34-1.5,17.21s.53,11.62,1.5,17.21l-22.92,23.35c-3.24,3.3-3.88,8.36-1.57,12.37l7.87,13.63,7.87,13.63c2.31,4.01,7.02,5.98,11.5,4.83l31.68-8.17c8.79,7.35,18.86,13.23,29.82,17.24l8.76,31.49c1.24,4.46,5.3,7.54,9.93,7.54h31.48c4.63,0,8.69-3.09,9.93-7.54l8.76-31.49c10.96-4.02,21.03-9.89,29.82-17.24l31.68,8.17c4.48,1.16,9.18-.82,11.5-4.83l7.87-13.63,7.87-13.63c2.31-4.01,1.67-9.07-1.57-12.37l-22.92-23.35Zm-98.67,44.35c-34,0-61.56-27.56-61.56-61.56s27.56-61.56,61.56-61.56,61.56,27.56,61.56,61.56-27.56,61.56-61.56,61.56Z" style="fill: #62a97f;"/>
</svg>